<svg width="40" height="40" viewBox="0 0 40 40" fill="none" xmlns="http://www.w3.org/2000/svg">
<rect width="40" height="40" rx="20" fill="#1F4C5F"/>
<g clip-path="url(#clip0_11_296)">
<path d="M14 28V27.125C14 25.5005 14.6321 23.9426 15.7574 22.794C16.8826 21.6453 18.4087 21 20 21M20 21C21.5913 21 23.1174 21.6453 24.2426 22.794C25.3679 23.9426 26 25.5005 26 27.125V28M20 21C20.9093 21 21.7814 20.6313 22.4244 19.9749C23.0673 19.3185 23.4286 18.4283 23.4286 17.5C23.4286 16.5717 23.0673 15.6815 22.4244 15.0251C21.7814 14.3687 20.9093 14 20 14C19.0907 14 18.2186 14.3687 17.5756 15.0251C16.9327 15.6815 16.5714 16.5717 16.5714 17.5C16.5714 18.4283 16.9327 19.3185 17.5756 19.9749C18.2186 20.6313 19.0907 21 20 21Z" stroke="white" stroke-width="0.9" stroke-linecap="round" stroke-linejoin="round"/>
</g>
<defs>
<clipPath id="clip0_11_296">
<rect width="14.4" height="14.4" fill="white" transform="translate(12.8 12.8)"/>
</clipPath>
</defs>
</svg>
