<svg width="57" height="57" viewBox="0 0 57 57" fill="none" xmlns="http://www.w3.org/2000/svg">
<circle cx="28.5" cy="28.5" r="28.5" fill="#E0F5F9"/>
<rect width="43.0738" height="26.9165" transform="translate(6.33337 14.25)" fill="#E0F5F9"/>
<path d="M30.3622 14.2503C32.5693 14.2245 34.6713 15.6427 35.9369 18.6208C37.8277 18.6007 39.9334 19.8525 40.6255 22.2391C41.357 22.3258 42.2211 22.5864 43.007 23.1366C44.1205 23.9164 45.0104 25.2326 45.1708 27.2509C45.1903 27.4961 45.107 27.7382 44.9413 27.919C44.7755 28.0998 44.5422 28.2028 44.2977 28.2028H39.0908L41.6365 29.9417C41.9547 30.1591 42.095 30.5603 41.982 30.9305C41.869 31.3005 41.5294 31.5531 41.1449 31.5531H21.3518C20.8681 31.5531 20.476 31.1584 20.476 30.6715C20.476 30.1845 20.8681 29.7898 21.3518 29.7898H38.2947L35.7488 28.0506C35.4305 27.8332 35.2903 27.4322 35.4032 27.0621C35.5162 26.692 35.8558 26.4394 36.2404 26.4394H43.2625C43.008 25.5144 42.5199 24.9435 42.0066 24.5841C41.2987 24.0884 40.4714 23.9472 39.9567 23.9697C39.5117 23.9892 39.123 23.6694 39.0535 23.2265C38.7143 21.0636 36.8222 20.168 35.5363 20.4269C35.1113 20.5124 34.688 20.2721 34.5408 19.8617C33.4893 16.9305 31.7885 15.9973 30.3828 16.0137C28.9051 16.031 27.3984 17.0844 26.7215 18.8257C26.5452 19.2791 26.0371 19.5029 25.5867 19.3255C25.1363 19.148 24.9141 18.6365 25.0903 18.1831C25.9899 15.8687 28.074 14.2772 30.3622 14.2503Z" fill="#00A9CE"/>
<path d="M20.5979 26.8208H11.5294C11.3068 26.8208 11.0829 26.881 10.9195 27.0322C10.312 27.5944 10.6009 28.091 10.9592 28.373C11.1001 28.4839 11.2814 28.5215 11.4606 28.5215H24.8499C25.1007 28.5215 25.3574 28.4467 25.5122 28.2494C25.868 27.7961 25.7248 27.3629 25.4958 27.072C25.3505 26.8874 25.1106 26.8208 24.8757 26.8208H23.6983C23.4053 26.8208 23.1046 26.7156 22.9618 26.4599C22.7221 26.0306 22.8139 25.6351 22.982 25.3547C23.1164 25.1307 23.3841 25.0461 23.6453 25.0461H25.7675C25.9997 25.0461 26.2345 24.9807 26.3972 24.815C26.9321 24.2701 26.6922 23.7653 26.3706 23.4604C26.2231 23.3205 26.0171 23.2714 25.8139 23.2714H19.6159C19.3769 23.2714 19.1329 23.3394 18.9763 23.52C18.5628 23.9969 18.7283 24.4728 18.9842 24.7903C19.1341 24.9764 19.3769 25.0461 19.6159 25.0461H20.5979C20.826 25.0461 21.0581 25.1082 21.2162 25.2727C21.6926 25.7683 21.4959 26.2653 21.2089 26.5874C21.0572 26.7577 20.826 26.8208 20.5979 26.8208Z" fill="#00A9CE"/>
<rect x="12.3696" y="23.2714" width="4.73248" height="1.77468" rx="0.88734" fill="#00A9CE"/>
<rect x="20.0605" y="19.7219" width="4.73248" height="1.77468" rx="0.88734" fill="#00A9CE"/>
<rect x="27.1565" y="26.8202" width="4.73248" height="1.77468" rx="0.88734" fill="#00A9CE"/>
<circle cx="17.1008" cy="20.6093" r="0.88734" fill="#00A9CE"/>
<circle cx="29.2313" cy="24.1588" r="0.88734" fill="#00A9CE"/>
<path d="M48.8494 35.9349V37.004H45.759V35.9349H48.8494ZM46.4606 34.7054H47.8839V39.4896C47.8839 39.621 47.9039 39.7235 47.944 39.797C47.9841 39.8683 48.0398 39.9184 48.1111 39.9474C48.1846 39.9763 48.2692 39.9908 48.365 39.9908C48.4318 39.9908 48.4986 39.9852 48.5654 39.9741C48.6323 39.9607 48.6835 39.9507 48.7191 39.944L48.943 41.0031C48.8717 41.0254 48.7715 41.051 48.6423 41.0799C48.5131 41.1111 48.3561 41.1301 48.1712 41.1367C47.8282 41.1501 47.5275 41.1044 47.2691 40.9998C47.013 40.8951 46.8137 40.7325 46.6711 40.512C46.5286 40.2915 46.4584 40.0131 46.4606 39.6767V34.7054Z" fill="#00A9CE"/>
<path d="M42.6674 41.1665C42.1484 41.1665 41.6996 41.0562 41.321 40.8357C40.9445 40.613 40.6539 40.3034 40.449 39.907C40.2441 39.5083 40.1416 39.0461 40.1416 38.5205C40.1416 37.9904 40.2441 37.5271 40.449 37.1306C40.6539 36.7319 40.9445 36.4223 41.321 36.2018C41.6996 35.9791 42.1484 35.8677 42.6674 35.8677C43.1863 35.8677 43.634 35.9791 44.0104 36.2018C44.3891 36.4223 44.6809 36.7319 44.8858 37.1306C45.0907 37.5271 45.1931 37.9904 45.1931 38.5205C45.1931 39.0461 45.0907 39.5083 44.8858 39.907C44.6809 40.3034 44.3891 40.613 44.0104 40.8357C43.634 41.0562 43.1863 41.1665 42.6674 41.1665ZM42.6741 40.064C42.9101 40.064 43.1073 39.9972 43.2654 39.8635C43.4235 39.7277 43.5427 39.5428 43.6229 39.3089C43.7053 39.0751 43.7465 38.8089 43.7465 38.5104C43.7465 38.212 43.7053 37.9458 43.6229 37.7119C43.5427 37.4781 43.4235 37.2932 43.2654 37.1573C43.1073 37.0215 42.9101 36.9535 42.6741 36.9535C42.4357 36.9535 42.2353 37.0215 42.0727 37.1573C41.9123 37.2932 41.7909 37.4781 41.7085 37.7119C41.6283 37.9458 41.5882 38.212 41.5882 38.5104C41.5882 38.8089 41.6283 39.0751 41.7085 39.3089C41.7909 39.5428 41.9123 39.7277 42.0727 39.8635C42.2353 39.9972 42.4357 40.064 42.6741 40.064Z" fill="#00A9CE"/>
<path d="M34.1558 41.0663V34.224H36.8953C37.3987 34.224 37.8186 34.2986 38.1549 34.4478C38.4912 34.5971 38.744 34.8042 38.9133 35.0693C39.0826 35.3321 39.1672 35.635 39.1672 35.978C39.1672 36.2453 39.1137 36.4803 39.0068 36.6829C38.8999 36.8834 38.7529 37.0482 38.5658 37.1774C38.381 37.3044 38.1694 37.3946 37.931 37.448V37.5148C38.1916 37.526 38.4355 37.5995 38.6627 37.7353C38.8921 37.8712 39.0781 38.0616 39.2207 38.3067C39.3632 38.5494 39.4345 38.839 39.4345 39.1753C39.4345 39.5384 39.3443 39.8624 39.1639 40.1475C38.9857 40.4304 38.7217 40.6542 38.3721 40.8191C38.0224 40.9839 37.5914 41.0663 37.0791 41.0663H34.1558ZM35.6024 39.8836H36.7818C37.1849 39.8836 37.4789 39.8067 37.6638 39.6531C37.8486 39.4971 37.9411 39.29 37.9411 39.0316C37.9411 38.8423 37.8954 38.6753 37.8041 38.5305C37.7128 38.3857 37.5825 38.2721 37.4132 38.1897C37.2462 38.1073 37.0468 38.0661 36.8152 38.0661H35.6024V39.8836ZM35.6024 37.0872H36.6748C36.8731 37.0872 37.049 37.0527 37.2027 36.9836C37.3586 36.9124 37.4811 36.8121 37.5702 36.6829C37.6615 36.5538 37.7072 36.399 37.7072 36.2186C37.7072 35.9713 37.6192 35.772 37.4433 35.6205C37.2695 35.4691 37.0223 35.3933 36.7016 35.3933H35.6024V37.0872Z" fill="#00A9CE"/>
<path d="M30.0408 41.1498C29.651 41.1498 29.298 41.0496 28.9817 40.8491C28.6676 40.6464 28.4182 40.3491 28.2333 39.9571C28.0507 39.5629 27.9594 39.0795 27.9594 38.5071C27.9594 37.9191 28.054 37.4302 28.2433 37.0404C28.4327 36.6484 28.6843 36.3555 28.9984 36.1618C29.3147 35.9658 29.661 35.8678 30.0374 35.8678C30.3247 35.8678 30.5642 35.9168 30.7557 36.0148C30.9495 36.1105 31.1054 36.2308 31.2235 36.3756C31.3437 36.5181 31.4351 36.6584 31.4974 36.7965H31.5409V34.224H32.9608V41.0663H31.5576V40.2444H31.4974C31.4306 40.387 31.3359 40.5284 31.2134 40.6687C31.0932 40.8068 30.9361 40.9215 30.7424 41.0128C30.5508 41.1042 30.317 41.1498 30.0408 41.1498ZM30.4918 40.0172C30.7212 40.0172 30.915 39.9549 31.0731 39.8301C31.2335 39.7032 31.356 39.5261 31.4406 39.2989C31.5275 39.0717 31.5709 38.8056 31.5709 38.5004C31.5709 38.1953 31.5286 37.9302 31.444 37.7053C31.3593 37.4803 31.2368 37.3066 31.0765 37.1841C30.9161 37.0616 30.7212 37.0003 30.4918 37.0003C30.2579 37.0003 30.0608 37.0638 29.9004 37.1908C29.7401 37.3177 29.6187 37.4937 29.5363 37.7186C29.4539 37.9436 29.4127 38.2042 29.4127 38.5004C29.4127 38.7989 29.4539 39.0628 29.5363 39.2922C29.6209 39.5194 29.7423 39.6976 29.9004 39.8268C30.0608 39.9537 30.2579 40.0172 30.4918 40.0172Z" fill="#253746"/>
<path d="M25.588 38.8809V35.9341H27.0112V41.0659H25.6448V40.1337H25.5913C25.4755 40.4344 25.2828 40.6761 25.0133 40.8587C24.746 41.0414 24.4197 41.1327 24.0344 41.1327C23.6914 41.1327 23.3896 41.0547 23.129 40.8988C22.8684 40.7429 22.6646 40.5213 22.5176 40.234C22.3728 39.9466 22.2993 39.6025 22.2971 39.2016V35.9341H23.7204V38.9477C23.7226 39.2506 23.8039 39.49 23.9643 39.666C24.1246 39.842 24.3396 39.9299 24.6091 39.9299C24.7806 39.9299 24.9409 39.891 25.0902 39.813C25.2394 39.7328 25.3597 39.6148 25.451 39.4589C25.5445 39.3029 25.5902 39.1103 25.588 38.8809Z" fill="#253746"/>
<path d="M18.8463 41.1665C18.3274 41.1665 17.8786 41.0562 17.4999 40.8357C17.1235 40.613 16.8328 40.3034 16.6279 39.907C16.423 39.5083 16.3206 39.0461 16.3206 38.5205C16.3206 37.9904 16.423 37.5271 16.6279 37.1306C16.8328 36.7319 17.1235 36.4223 17.4999 36.2018C17.8786 35.9791 18.3274 35.8677 18.8463 35.8677C19.3653 35.8677 19.813 35.9791 20.1894 36.2018C20.568 36.4223 20.8598 36.7319 21.0647 37.1306C21.2696 37.5271 21.3721 37.9904 21.3721 38.5205C21.3721 39.0461 21.2696 39.5083 21.0647 39.907C20.8598 40.3034 20.568 40.613 20.1894 40.8357C19.813 41.0562 19.3653 41.1665 18.8463 41.1665ZM18.853 40.064C19.0891 40.064 19.2862 39.9972 19.4444 39.8635C19.6025 39.7277 19.7217 39.5428 19.8018 39.3089C19.8842 39.0751 19.9255 38.8089 19.9255 38.5104C19.9255 38.212 19.8842 37.9458 19.8018 37.7119C19.7217 37.4781 19.6025 37.2932 19.4444 37.1573C19.2862 37.0215 19.0891 36.9535 18.853 36.9535C18.6147 36.9535 18.4142 37.0215 18.2516 37.1573C18.0913 37.2932 17.9699 37.4781 17.8875 37.7119C17.8073 37.9458 17.7672 38.212 17.7672 38.5104C17.7672 38.8089 17.8073 39.0751 17.8875 39.3089C17.9699 39.5428 18.0913 39.7277 18.2516 39.8635C18.4142 39.9972 18.6147 40.064 18.853 40.064Z" fill="#253746"/>
<path d="M15.385 34.224V41.0663H13.9618V34.224H15.385Z" fill="#253746"/>
<path d="M12.9552 36.6192H11.4919C11.4652 36.4299 11.4106 36.2617 11.3282 36.1147C11.2458 35.9655 11.14 35.8385 11.0108 35.7338C10.8816 35.6292 10.7324 35.549 10.5631 35.4933C10.3961 35.4376 10.2145 35.4098 10.0185 35.4098C9.66439 35.4098 9.35591 35.4978 9.09309 35.6737C8.83027 35.8474 8.62647 36.1014 8.4817 36.4355C8.33692 36.7673 8.26453 37.1705 8.26453 37.6449C8.26453 38.1327 8.33692 38.5425 8.4817 38.8744C8.6287 39.2062 8.83361 39.4568 9.09643 39.6261C9.35925 39.7953 9.66328 39.88 10.0085 39.88C10.2023 39.88 10.3816 39.8544 10.5464 39.8031C10.7135 39.7519 10.8616 39.6773 10.9908 39.5793C11.1199 39.4791 11.2269 39.3577 11.3115 39.2151C11.3984 39.0726 11.4585 38.91 11.4919 38.7273L12.9552 38.734C12.9174 39.0481 12.8227 39.351 12.6713 39.6428C12.522 39.9323 12.3205 40.1918 12.0665 40.4212C11.8149 40.6484 11.5142 40.8288 11.1645 40.9625C10.817 41.0939 10.4239 41.1596 9.98513 41.1596C9.37485 41.1596 8.82916 41.0215 8.34806 40.7453C7.86919 40.4691 7.49054 40.0693 7.21213 39.5459C6.93594 39.0225 6.79785 38.3888 6.79785 37.6449C6.79785 36.8987 6.93817 36.2639 7.21881 35.7405C7.49945 35.2171 7.88032 34.8184 8.36142 34.5445C8.84252 34.2683 9.38375 34.1302 9.98513 34.1302C10.3816 34.1302 10.7491 34.1859 11.0876 34.2972C11.4284 34.4086 11.7302 34.5712 11.993 34.785C12.2559 34.9966 12.4697 35.2561 12.6345 35.5635C12.8016 35.8708 12.9085 36.2227 12.9552 36.6192Z" fill="#253746"/>
</svg>
