<svg width="40" height="40" viewBox="0 0 40 40" fill="none" xmlns="http://www.w3.org/2000/svg">
<circle cx="20" cy="20" r="20" fill="#1F4C5F"/>
<rect width="30.2272" height="18.8888" transform="translate(4.44434 10)" fill="#1F4C5F"/>
<path d="M21.3069 10.0002C22.8557 9.98211 24.3308 10.9774 25.2189 13.0672C26.5458 13.0531 28.0235 13.9316 28.5092 15.6064C29.0225 15.6672 29.6289 15.8501 30.1804 16.2362C30.9618 16.7834 31.5863 17.7071 31.6989 19.1234C31.7125 19.2955 31.6541 19.4654 31.5378 19.5923C31.4214 19.7191 31.2577 19.7914 31.0862 19.7914H27.4322L29.2186 21.0117C29.442 21.1643 29.5404 21.4459 29.4611 21.7056C29.3818 21.9653 29.1435 22.1426 28.8736 22.1426H14.9837C14.6443 22.1426 14.3692 21.8655 14.3691 21.5238C14.3691 21.1821 14.6443 20.9051 14.9837 20.9051H26.8736L25.0869 19.6846C24.8636 19.532 24.7652 19.2507 24.8444 18.991C24.9237 18.7312 25.162 18.554 25.4319 18.554H30.3597C30.1811 17.9048 29.8386 17.5042 29.4784 17.252C28.9816 16.9042 28.401 16.8051 28.0398 16.8209C27.7276 16.8345 27.4548 16.6101 27.406 16.2993C27.168 14.7814 25.8402 14.153 24.9378 14.3346C24.6396 14.3947 24.3425 14.226 24.2392 13.938C23.5013 11.881 22.3078 11.2262 21.3213 11.2377C20.2844 11.2498 19.227 11.9891 18.752 13.211C18.6283 13.5292 18.2717 13.6862 17.9557 13.5617C17.6396 13.4372 17.4836 13.0783 17.6073 12.7601C18.2386 11.136 19.7011 10.0191 21.3069 10.0002Z" fill="#00A9CE"/>
<path d="M14.4547 18.8217H8.09081C7.93461 18.8217 7.77744 18.8639 7.6628 18.97C7.23647 19.3645 7.4392 19.7131 7.69068 19.9109C7.78953 19.9887 7.91676 20.0151 8.04254 20.0151H17.4385C17.6145 20.0151 17.7947 19.9627 17.9033 19.8242C18.1529 19.5061 18.0525 19.2021 17.8918 18.9979C17.7898 18.8684 17.6215 18.8217 17.4566 18.8217H16.6303C16.4248 18.8217 16.2137 18.7479 16.1135 18.5684C15.9453 18.2671 16.0097 17.9896 16.1277 17.7928C16.222 17.6356 16.4099 17.5763 16.5932 17.5763H18.0824C18.2454 17.5763 18.4102 17.5304 18.5243 17.4141C18.8997 17.0317 18.7314 16.6775 18.5057 16.4635C18.4022 16.3653 18.2576 16.3309 18.115 16.3309H13.7655C13.5978 16.3309 13.4266 16.3786 13.3167 16.5053C13.0265 16.84 13.1427 17.1739 13.3222 17.3968C13.4275 17.5274 13.5978 17.5763 13.7655 17.5763H14.4547C14.6147 17.5763 14.7776 17.6199 14.8886 17.7353C15.2228 18.0831 15.0848 18.4319 14.8835 18.6579C14.777 18.7774 14.6147 18.8217 14.4547 18.8217Z" fill="#00A9CE"/>
<rect x="8.68042" y="16.3309" width="3.32104" height="1.24539" rx="0.622695" fill="#00A9CE"/>
<rect x="14.0775" y="13.8399" width="3.32104" height="1.24539" rx="0.622695" fill="#00A9CE"/>
<rect x="19.0573" y="18.8212" width="3.32104" height="1.24539" rx="0.622695" fill="#00A9CE"/>
<circle cx="12.0006" cy="14.4626" r="0.622695" fill="#00A9CE"/>
<circle cx="20.5132" cy="16.9536" r="0.622695" fill="#00A9CE"/>
<path d="M34.2803 25.2175V25.9677H32.1116V25.2175H34.2803ZM32.6039 24.3547H33.6027V27.712C33.6027 27.8043 33.6168 27.8762 33.6449 27.9277C33.673 27.9778 33.7121 28.0129 33.7621 28.0332C33.8137 28.0536 33.8731 28.0637 33.9403 28.0637C33.9872 28.0637 34.0341 28.0598 34.081 28.052C34.1279 28.0426 34.1638 28.0356 34.1888 28.0309L34.3459 28.7741C34.2959 28.7898 34.2256 28.8077 34.1349 28.828C34.0443 28.8499 33.9341 28.8632 33.8043 28.8679C33.5636 28.8773 33.3526 28.8452 33.1713 28.7718C32.9916 28.6983 32.8517 28.5842 32.7516 28.4295C32.6516 28.2747 32.6024 28.0794 32.6039 27.8433V24.3547Z" fill="#00A9CE"/>
<path d="M29.942 28.8888C29.5778 28.8888 29.2629 28.8115 28.9972 28.6567C28.733 28.5004 28.5291 28.2832 28.3853 28.005C28.2415 27.7252 28.1696 27.4008 28.1696 27.032C28.1696 26.66 28.2415 26.3349 28.3853 26.0566C28.5291 25.7769 28.733 25.5596 28.9972 25.4049C29.2629 25.2486 29.5778 25.1704 29.942 25.1704C30.3062 25.1704 30.6204 25.2486 30.8845 25.4049C31.1502 25.5596 31.355 25.7769 31.4988 26.0566C31.6426 26.3349 31.7145 26.66 31.7145 27.032C31.7145 27.4008 31.6426 27.7252 31.4988 28.005C31.355 28.2832 31.1502 28.5004 30.8845 28.6567C30.6204 28.8115 30.3062 28.8888 29.942 28.8888ZM29.9467 28.1151C30.1124 28.1151 30.2507 28.0683 30.3617 27.9745C30.4727 27.8791 30.5563 27.7494 30.6126 27.5853C30.6704 27.4212 30.6993 27.2344 30.6993 27.0249C30.6993 26.8155 30.6704 26.6287 30.6126 26.4646C30.5563 26.3005 30.4727 26.1707 30.3617 26.0754C30.2507 25.9801 30.1124 25.9324 29.9467 25.9324C29.7795 25.9324 29.6388 25.9801 29.5247 26.0754C29.4122 26.1707 29.327 26.3005 29.2691 26.4646C29.2129 26.6287 29.1847 26.8155 29.1847 27.0249C29.1847 27.2344 29.2129 27.4212 29.2691 27.5853C29.327 27.7494 29.4122 27.8791 29.5247 27.9745C29.6388 28.0683 29.7795 28.1151 29.9467 28.1151Z" fill="#00A9CE"/>
<path d="M23.9689 28.8185V24.0168H25.8914C26.2446 24.0168 26.5393 24.0692 26.7753 24.1739C27.0113 24.2787 27.1887 24.424 27.3075 24.61C27.4263 24.7944 27.4857 25.007 27.4857 25.2477C27.4857 25.4353 27.4482 25.6002 27.3731 25.7424C27.2981 25.8831 27.195 25.9988 27.0637 26.0894C26.9339 26.1785 26.7854 26.2418 26.6182 26.2793V26.3262C26.8011 26.334 26.9722 26.3856 27.1316 26.481C27.2926 26.5763 27.4232 26.7099 27.5232 26.8819C27.6232 27.0522 27.6732 27.2554 27.6732 27.4914C27.6732 27.7462 27.6099 27.9736 27.4833 28.1737C27.3583 28.3722 27.1731 28.5293 26.9277 28.645C26.6823 28.7606 26.3798 28.8185 26.0203 28.8185H23.9689ZM24.9841 27.9885H25.8117C26.0946 27.9885 26.3009 27.9346 26.4306 27.8267C26.5604 27.7173 26.6252 27.5719 26.6252 27.3906C26.6252 27.2578 26.5932 27.1405 26.5291 27.0389C26.465 26.9374 26.3736 26.8576 26.2548 26.7998C26.1376 26.742 25.9977 26.7131 25.8351 26.7131H24.9841V27.9885ZM24.9841 26.0261H25.7367C25.8758 26.0261 25.9992 26.0019 26.1071 25.9534C26.2165 25.9034 26.3025 25.8331 26.365 25.7424C26.4291 25.6518 26.4611 25.5431 26.4611 25.4165C26.4611 25.243 26.3994 25.1031 26.2759 24.9969C26.154 24.8906 25.9805 24.8374 25.7554 24.8374H24.9841V26.0261Z" fill="#00A9CE"/>
<path d="M21.0813 28.8771C20.8077 28.8771 20.56 28.8067 20.338 28.6661C20.1176 28.5238 19.9426 28.3152 19.8129 28.0401C19.6847 27.7634 19.6206 27.4242 19.6206 27.0225C19.6206 26.6099 19.687 26.2668 19.8199 25.9933C19.9527 25.7182 20.1294 25.5127 20.3498 25.3767C20.5717 25.2391 20.8148 25.1704 21.0789 25.1704C21.2805 25.1704 21.4486 25.2047 21.583 25.2735C21.719 25.3407 21.8284 25.4251 21.9112 25.5267C21.9956 25.6268 22.0597 25.7252 22.1035 25.8221H22.1339V24.0168H23.1304V28.8185H22.1457V28.2417H22.1035C22.0566 28.3417 21.9901 28.441 21.9042 28.5395C21.8198 28.6364 21.7096 28.7169 21.5736 28.7809C21.4392 28.845 21.2751 28.8771 21.0813 28.8771ZM21.3978 28.0823C21.5588 28.0823 21.6947 28.0385 21.8057 27.951C21.9182 27.8619 22.0042 27.7376 22.0636 27.5782C22.1246 27.4188 22.155 27.232 22.155 27.0178C22.155 26.8037 22.1253 26.6177 22.066 26.4598C22.0066 26.302 21.9206 26.1801 21.8081 26.0941C21.6955 26.0081 21.5588 25.9652 21.3978 25.9652C21.2336 25.9652 21.0953 26.0097 20.9828 26.0988C20.8702 26.1879 20.7851 26.3114 20.7272 26.4692C20.6694 26.6271 20.6405 26.81 20.6405 27.0178C20.6405 27.2273 20.6694 27.4125 20.7272 27.5735C20.7866 27.7329 20.8718 27.858 20.9828 27.9486C21.0953 28.0377 21.2336 28.0823 21.3978 28.0823Z" fill="white"/>
<path d="M17.9566 27.2849V25.217H18.9554V28.8182H17.9964V28.1641H17.9589C17.8776 28.3751 17.7424 28.5447 17.5533 28.6728C17.3658 28.801 17.1368 28.8651 16.8664 28.8651C16.6257 28.8651 16.4139 28.8104 16.231 28.701C16.0481 28.5915 15.9051 28.436 15.802 28.2344C15.7004 28.0328 15.6488 27.7913 15.6472 27.5099V25.217H16.646V27.3317C16.6476 27.5443 16.7046 27.7123 16.8171 27.8358C16.9297 27.9593 17.0805 28.021 17.2696 28.021C17.39 28.021 17.5025 27.9937 17.6072 27.939C17.712 27.8827 17.7964 27.7999 17.8605 27.6905C17.9261 27.5811 17.9581 27.4458 17.9566 27.2849Z" fill="white"/>
<path d="M13.2255 28.8888C12.8613 28.8888 12.5463 28.8115 12.2806 28.6567C12.0165 28.5004 11.8125 28.2832 11.6687 28.005C11.5249 27.7252 11.453 27.4008 11.453 27.032C11.453 26.66 11.5249 26.3349 11.6687 26.0566C11.8125 25.7769 12.0165 25.5596 12.2806 25.4049C12.5463 25.2486 12.8613 25.1704 13.2255 25.1704C13.5897 25.1704 13.9038 25.2486 14.168 25.4049C14.4337 25.5596 14.6384 25.7769 14.7822 26.0566C14.926 26.3349 14.9979 26.66 14.9979 27.032C14.9979 27.4008 14.926 27.7252 14.7822 28.005C14.6384 28.2832 14.4337 28.5004 14.168 28.6567C13.9038 28.8115 13.5897 28.8888 13.2255 28.8888ZM13.2302 28.1151C13.3958 28.1151 13.5342 28.0683 13.6451 27.9745C13.7561 27.8791 13.8397 27.7494 13.896 27.5853C13.9538 27.4212 13.9828 27.2344 13.9828 27.0249C13.9828 26.8155 13.9538 26.6287 13.896 26.4646C13.8397 26.3005 13.7561 26.1707 13.6451 26.0754C13.5342 25.9801 13.3958 25.9324 13.2302 25.9324C13.0629 25.9324 12.9222 25.9801 12.8081 26.0754C12.6956 26.1707 12.6104 26.3005 12.5526 26.4646C12.4963 26.6287 12.4682 26.8155 12.4682 27.0249C12.4682 27.2344 12.4963 27.4212 12.5526 27.5853C12.6104 27.7494 12.6956 27.8791 12.8081 27.9745C12.9222 28.0683 13.0629 28.1151 13.2302 28.1151Z" fill="white"/>
<path d="M10.7965 24.0168V28.8185H9.79773V24.0168H10.7965Z" fill="white"/>
<path d="M9.09136 25.6977H8.06446C8.0457 25.5648 8.0074 25.4468 7.94957 25.3436C7.89174 25.2389 7.8175 25.1498 7.72684 25.0764C7.63619 25.0029 7.53146 24.9466 7.41267 24.9076C7.29545 24.8685 7.16806 24.8489 7.03052 24.8489C6.782 24.8489 6.56552 24.9107 6.38108 25.0342C6.19664 25.1561 6.05363 25.3343 5.95203 25.5687C5.85043 25.8016 5.79964 26.0845 5.79964 26.4174C5.79964 26.7597 5.85043 27.0473 5.95203 27.2802C6.05519 27.5131 6.19899 27.689 6.38342 27.8077C6.56786 27.9265 6.78121 27.9859 7.02348 27.9859C7.15947 27.9859 7.28529 27.968 7.40095 27.932C7.51818 27.8961 7.62212 27.8437 7.71277 27.7749C7.80343 27.7046 7.87846 27.6194 7.93785 27.5194C7.99881 27.4193 8.04101 27.3052 8.06446 27.1771L9.09136 27.1818C9.06479 27.4021 8.99836 27.6147 8.89208 27.8195C8.78735 28.0227 8.6459 28.2048 8.46772 28.3657C8.29109 28.5252 8.08009 28.6518 7.83469 28.7456C7.59086 28.8378 7.31499 28.8839 7.00707 28.8839C6.5788 28.8839 6.19586 28.787 5.85825 28.5932C5.5222 28.3994 5.25649 28.1188 5.06111 27.7515C4.86729 27.3842 4.77039 26.9395 4.77039 26.4174C4.77039 25.8938 4.86886 25.4484 5.0658 25.0811C5.26274 24.7137 5.53001 24.434 5.86763 24.2417C6.20524 24.0479 6.58505 23.951 7.00707 23.951C7.28529 23.951 7.54319 23.9901 7.78077 24.0682C8.01991 24.1464 8.2317 24.2605 8.41614 24.4105C8.60057 24.559 8.75062 24.7411 8.86629 24.9568C8.98351 25.1725 9.05854 25.4194 9.09136 25.6977Z" fill="white"/>
</svg>
