<svg width="24" height="24" viewBox="0 0 24 24" fill="none" xmlns="http://www.w3.org/2000/svg">
<path d="M12 22C6.477 22 2 17.523 2 12C2 6.477 6.477 2 12 2C17.523 2 22 6.477 22 12C22 17.523 17.523 22 12 22ZM9.71 19.667C8.72341 17.5743 8.15187 15.3102 8.027 13H4.062C4.25683 14.5388 4.89425 15.988 5.89686 17.1715C6.89947 18.355 8.22414 19.2219 9.71 19.667ZM10.03 13C10.181 15.439 10.878 17.73 12 19.752C13.1525 17.6766 13.8256 15.3695 13.97 13H10.03ZM19.938 13H15.973C15.8481 15.3102 15.2766 17.5743 14.29 19.667C15.7759 19.2219 17.1005 18.355 18.1031 17.1715C19.1057 15.988 19.7432 14.5388 19.938 13ZM4.062 11H8.027C8.15187 8.68979 8.72341 6.42569 9.71 4.333C8.22414 4.77811 6.89947 5.64505 5.89686 6.82855C4.89425 8.01204 4.25683 9.46119 4.062 11ZM10.031 11H13.969C13.8249 8.63057 13.1521 6.32347 12 4.248C10.8475 6.32338 10.1744 8.63049 10.03 11M14.289 4.333C15.2759 6.42562 15.8478 8.68972 15.973 11H19.938C19.7432 9.46119 19.1057 8.01204 18.1031 6.82855C17.1005 5.64505 15.7759 4.77811 14.29 4.333" fill="#00A9CE"/>
</svg>
