<svg width="41" height="41" viewBox="0 0 41 41" fill="none" xmlns="http://www.w3.org/2000/svg">
<rect x="0.27356" y="0.5" width="40" height="40" rx="20" fill="#1F4C5F"/>
<path d="M13.2736 28.5V27.5C13.2736 25.6435 14.0111 23.863 15.3238 22.5503C16.6366 21.2375 18.417 20.5 20.2736 20.5M20.2736 20.5C22.1301 20.5 23.9106 21.2375 25.2233 22.5503C26.5361 23.863 27.2736 25.6435 27.2736 27.5V28.5M20.2736 20.5C21.3344 20.5 22.3518 20.0786 23.102 19.3284C23.8521 18.5783 24.2736 17.5609 24.2736 16.5C24.2736 15.4391 23.8521 14.4217 23.102 13.6716C22.3518 12.9214 21.3344 12.5 20.2736 12.5C19.2127 12.5 18.1953 12.9214 17.4451 13.6716C16.695 14.4217 16.2736 15.4391 16.2736 16.5C16.2736 17.5609 16.695 18.5783 17.4451 19.3284C18.1953 20.0786 19.2127 20.5 20.2736 20.5Z" stroke="#B2E5F0" stroke-width="1.5" stroke-linecap="round" stroke-linejoin="round"/>
</svg>
